<?xml version="1.0" standalone="no"?>
<!DOCTYPE svg PUBLIC "-//W3C//DTD SVG 20010904//EN"
 "http://www.w3.org/TR/2001/REC-SVG-20010904/DTD/svg10.dtd">
<svg version="1.0" xmlns="http://www.w3.org/2000/svg"
 width="612.000000pt" height="612.000000pt" viewBox="0 0 612.000000 612.000000"
 preserveAspectRatio="xMidYMid meet">
<metadata>
Created by potrace 1.16, written by Peter Selinger 2001-2019
</metadata>
<g transform="translate(0.000000,612.000000) scale(0.100000,-0.100000)"
fill="#000000" stroke="none">
<path d="M1180 4833 c-25 -2 -49 -8 -53 -12 -5 -5 -1 -114 8 -242 9 -129 27
-397 40 -597 13 -199 27 -367 30 -372 7 -11 124 -3 137 9 5 4 -44 904 -64
1176 -3 44 -8 46 -98 38z"/>
<path d="M4846 4818 c-10 -44 -75 -1193 -68 -1199 13 -12 130 -20 137 -9 3 5
15 137 25 292 10 156 29 426 40 601 12 176 20 320 18 322 -2 1 -35 5 -75 9
-70 7 -72 6 -77 -16z"/>
<path d="M1010 4821 c-50 -6 -55 -8 -58 -33 -5 -43 78 -1182 87 -1191 4 -4 38
-5 74 -1 59 6 67 9 67 28 -1 81 -79 1186 -84 1195 -4 6 -13 10 -19 9 -7 -1
-37 -4 -67 -7z"/>
<path d="M5024 4818 c-3 -5 -21 -237 -39 -516 -19 -279 -37 -550 -40 -603 l-7
-96 67 -8 c37 -4 71 -3 76 2 8 9 96 1209 89 1216 -10 9 -141 13 -146 5z"/>
<path d="M783 4802 c-11 -7 -4 -117 75 -1122 l7 -95 68 2 c38 0 71 4 75 8 3 3
-13 272 -36 598 -24 326 -42 598 -42 605 0 13 -126 17 -147 4z"/>
<path d="M5196 4802 c-8 -13 -90 -1201 -84 -1208 4 -3 37 -7 75 -7 l68 -2 47
605 c35 457 44 607 35 612 -16 10 -134 10 -141 0z"/>
<path d="M683 4643 c-23 -2 -43 -9 -45 -16 -6 -16 68 -896 75 -903 3 -3 30 -3
61 1 l56 7 0 42 c0 52 -59 824 -65 854 -3 13 -12 21 -23 20 -9 -1 -36 -3 -59
-5z"/>
<path d="M5356 4628 c-10 -41 -72 -879 -66 -888 3 -4 31 -11 62 -15 l56 -7 6
43 c6 45 64 751 68 826 1 23 0 44 -3 46 -2 3 -30 8 -61 11 -54 7 -58 6 -62
-16z"/>
<path d="M1546 4374 c-3 -9 -6 -31 -6 -50 l0 -34 -55 0 c-48 0 -55 3 -55 19 0
42 -10 51 -62 51 l-49 0 6 -102 c10 -172 7 -165 63 -158 46 5 47 6 50 43 l3
37 50 0 49 0 -2 -1477 -3 -1477 -31 -8 c-37 -9 -54 -42 -54 -103 l0 -45 190 0
190 0 0 49 c0 58 -28 101 -66 101 l-24 0 0 275 0 275 320 0 320 0 0 -328 c0
-228 -3 -331 -11 -339 -23 -23 3 -33 91 -33 88 0 114 10 91 33 -7 7 -11 69
-11 179 l0 168 520 0 520 0 0 -168 c0 -110 -4 -172 -11 -179 -24 -24 3 -33 97
-33 75 0 94 3 94 14 0 8 -4 18 -10 21 -6 4 -10 127 -10 336 l0 329 320 0 320
0 -2 -272 -3 -273 -22 -3 c-37 -5 -63 -48 -63 -103 l0 -49 190 0 190 0 0 49
c0 58 -28 101 -66 101 l-24 0 0 1480 0 1480 49 0 50 0 3 -37 c3 -37 4 -38 50
-43 56 -7 53 -14 63 158 l5 102 -49 0 c-51 0 -61 -9 -61 -51 0 -16 -7 -19 -55
-19 l-55 0 0 34 c0 64 -3 66 -100 66 -95 0 -99 -3 -100 -67 0 -20 -4 -21 -52
-17 -374 31 -2122 31 -2520 -1 l-68 -5 0 29 c0 58 -4 61 -100 61 -71 0 -89 -3
-94 -16z m2309 -164 c187 -5 382 -12 433 -16 l92 -6 -2 -1116 -3 -1117 -275 0
-275 0 -5 77 c-4 63 -9 81 -29 102 l-24 26 -703 0 -703 0 -28 -24 c-25 -22
-29 -32 -33 -103 l-5 -78 -275 0 -275 0 -3 1117 -2 1116 92 7 c316 22 1465 31
2023 15z m-275 -2540 l0 -100 -520 0 -520 0 0 100 0 100 520 0 520 0 0 -100z"/>
<path d="M517 4283 c-4 -3 -7 -14 -7 -24 0 -19 -17 -24 -122 -33 -32 -2 -61
-7 -65 -9 -5 -3 -6 -34 -3 -69 l5 -63 103 3 c97 3 102 2 102 -17 0 -23 22 -26
93 -15 l38 7 -6 71 c-3 39 -8 90 -11 114 l-5 42 -58 0 c-32 0 -61 -3 -64 -7z"/>
<path d="M5476 4253 c-3 -21 -8 -72 -11 -114 l-6 -76 38 -6 c71 -12 93 -9 93
14 0 19 5 20 103 17 l102 -3 6 60 c3 33 3 64 -1 68 -5 6 -65 15 -187 27 -1 0
-3 10 -5 23 -3 20 -9 22 -65 25 l-61 3 -6 -38z"/>
</g>
</svg>
